<svg xmlns="http://www.w3.org/2000/svg" style="fill:#08234f;" width="140" viewBox="0 0 868.9 236.8"><path d="M652.29,114.66,692.79,9.3A14.46,14.46,0,0,1,711.3.92,15.18,15.18,0,0,1,720,9.75l40.33,104.91a2.29,2.29,0,0,1-2.14,3.14h-15.2a2.35,2.35,0,0,1-2.17-1.46L706.33,26.75l-34.57,89.59a2.31,2.31,0,0,1-2.15,1.46H654.43A2.31,2.31,0,0,1,652.29,114.66Z"></path><path d="M541.62,2.45A2.42,2.42,0,0,1,544,0h14.13a2.43,2.43,0,0,1,2.4,2.43V48.94a1.56,1.56,0,0,0,1.56,1.56h45.44a1.55,1.55,0,0,0,1.56-1.56V2.45A2.43,2.43,0,0,1,611.55,0h14.12a2.43,2.43,0,0,1,2.43,2.43V115.34a2.43,2.43,0,0,1-2.43,2.43H611.55a2.43,2.43,0,0,1-2.43-2.43V69a1.55,1.55,0,0,0-1.56-1.55H562.12A1.55,1.55,0,0,0,560.56,69v46.33a2.43,2.43,0,0,1-2.4,2.43H544v0a2.42,2.42,0,0,1-2.41-2.43Z"></path><path d="M425.75,3.76A3.77,3.77,0,0,1,429.52,0H441a3.77,3.77,0,0,1,3.77,3.75v44.7L493.41.58a1.9,1.9,0,0,1,1.4-.57h19.57a2,2,0,0,1,1.41,3.34L467.93,52.63,517.09,114a2.35,2.35,0,0,1-1.86,3.79H498.35a2.31,2.31,0,0,1-1.86-.89L455.06,65.79,444.8,76.35V114h0A3.77,3.77,0,0,1,441,117.8H429.52a3.77,3.77,0,0,1-3.77-3.76Z"></path><path d="M327.34,26.35A26.33,26.33,0,0,1,353.67,0h45.19a2.84,2.84,0,0,1,2.84,2.83V15.14A2.84,2.84,0,0,1,398.86,18l-48.13-.14a4.58,4.58,0,0,0-3.76,2,4.8,4.8,0,0,0-.79,2.74V50.46h47.06a2.82,2.82,0,0,1,2.83,2.83V64.64a2.84,2.84,0,0,1-2.83,2.84H346.18V95.41a4.56,4.56,0,0,0,4.55,4.53h48.15a2.84,2.84,0,0,1,2.84,2.83V115a2.84,2.84,0,0,1-2.84,2.83H353.67a26.35,26.35,0,0,1-26.33-26.35Z"></path><path d="M221.82,0H301l-.06,0a2.31,2.31,0,0,1,2.32,2.31V15.55A2.31,2.31,0,0,1,301,17.86h-30.1v97.59a2.32,2.32,0,0,1-2.31,2.33H254.24a2.32,2.32,0,0,1-2.3-2.33V17.84H222.17a2.34,2.34,0,0,1-2.33-2.27L219.52,2.4A2.29,2.29,0,0,1,221.82,0Z"></path><path d="M98.39,14.36A14.2,14.2,0,0,1,111.29,0a13.82,13.82,0,0,1,12.79,6.54L177.2,92.2V2.38A2.35,2.35,0,0,1,179.57,0h13.54a2.38,2.38,0,0,1,2.37,2.37v99.23c0,8.36-6.38,15.63-14.74,16.15a15.65,15.65,0,0,1-14.3-7.34L116.87,31.3v84.12a2.38,2.38,0,0,1-2.37,2.36H100.76a2.39,2.39,0,0,1-2.37-2.36Z"></path><path d="M0,26.35A26.34,26.34,0,0,1,26.35,0H71.93a2.4,2.4,0,0,1,2.41,2.39V15.56A2.4,2.4,0,0,1,71.93,18l-48.55-.14a4.58,4.58,0,0,0-3.77,2,4.8,4.8,0,0,0-.79,2.74V50.46h47.5a2.39,2.39,0,0,1,2.39,2.38V65.09a2.38,2.38,0,0,1-2.39,2.39H18.82V95.41a4.56,4.56,0,0,0,4.56,4.53H72a2.39,2.39,0,0,1,2.39,2.41v13A2.41,2.41,0,0,1,72,117.79H26.35A26.35,26.35,0,0,1,0,91.44Z"></path><path d="M863.26,64.6h0a28.93,28.93,0,0,0-10.62-9.14A28.28,28.28,0,0,0,863.46,32.9,32.1,32.1,0,0,0,859,16.27,32.77,32.77,0,0,0,830.54,0H787.15a2.68,2.68,0,0,0-2.67,2.66V115.14a2.68,2.68,0,0,0,2.67,2.66h46.69A34.88,34.88,0,0,0,868.9,82.74,30.4,30.4,0,0,0,863.26,64.6ZM803.52,20.2a2.36,2.36,0,0,1,2.34-2.37h23.21a15.38,15.38,0,0,1,11,4.48,14.53,14.53,0,0,1,4.28,10.62A14.49,14.49,0,0,1,840,43.63,14.28,14.28,0,0,1,829.42,48H805.86a2.36,2.36,0,0,1-2.34-2.37Zm41.57,74.52h0a16.16,16.16,0,0,1-12,4.91h-27.2a2.36,2.36,0,0,1-2.34-2.37v-29a2.36,2.36,0,0,1,2.34-2.4h27.2a16.17,16.17,0,0,1,12,5A16.94,16.94,0,0,1,850,82.74,16.37,16.37,0,0,1,845.09,94.72Z"></path><path d="M95.6,203.59l0,0c-3.79-2.89-9.77-5.37-17.8-7.4-4.28-1.07-7.58-2-9.79-2.84a12.11,12.11,0,0,1-4.83-3,7,7,0,0,1-1.6-4.88,7.68,7.68,0,0,1,3.83-6.76C68.17,176.93,72,176,76.72,176a51.93,51.93,0,0,1,18,3.57,1.4,1.4,0,0,0,1.79-.81l2.79-7.2a1.4,1.4,0,0,0-.81-1.81,61.69,61.69,0,0,0-21.8-4.4,36.78,36.78,0,0,0-13.28,2.29,21.64,21.64,0,0,0-9.49,6.9,17.39,17.39,0,0,0-3.5,10.81A17.61,17.61,0,0,0,53,195.18a19.61,19.61,0,0,0,7.73,6.47,74.3,74.3,0,0,0,13.48,4.84c4.16,1.08,7.38,2,9.57,2.8a13,13,0,0,1,5,3,6.45,6.45,0,0,1,1.7,4.75,7.28,7.28,0,0,1-3.83,6.59c-2.78,1.72-6.63,2.57-11.48,2.57a41.83,41.83,0,0,1-11.7-1.8A41.63,41.63,0,0,1,53.24,220a1.39,1.39,0,0,0-2,.61l-3,6.83a1.4,1.4,0,0,0,.51,1.74l.06,0a45,45,0,0,0,12.33,5.46,51.51,51.51,0,0,0,14.36,2.07c7.56,0,13.85-1.79,18.69-5.32a17.67,17.67,0,0,0,7.49-15.08A15.31,15.31,0,0,0,95.6,203.59Z"></path><path d="M338.89,215h0a19.25,19.25,0,0,0-5.11-7.4,10.91,10.91,0,0,0-.95-.73,21.67,21.67,0,0,0,7-7.06A21.31,21.31,0,0,0,343,188.43a22.78,22.78,0,0,0-3.11-11.6,23.17,23.17,0,0,0-8.39-8.38,22.55,22.55,0,0,0-11.58-3.1H294a1.28,1.28,0,0,0-1.3,1.3v68.82a1.3,1.3,0,0,0,1.3,1.32h8.9a1.3,1.3,0,0,0,1.3-1.32V211.91a1.32,1.32,0,0,1,1.32-1.32h11.76c5.45,0,9.1,2.49,11.17,7.58L336,236a1.32,1.32,0,0,0,1.2.79h8.9a1.33,1.33,0,0,0,1.22-1.83Zm-9.12-20.38a12.66,12.66,0,0,1-4.5,4.52,11.47,11.47,0,0,1-6,1.67H305.5a1.32,1.32,0,0,1-1.32-1.32v-22a1.3,1.3,0,0,1,1.32-1.3h13.74a11.65,11.65,0,0,1,6,1.64,12.66,12.66,0,0,1,4.5,4.52,12.07,12.07,0,0,1,1.66,6.09,12.37,12.37,0,0,1-1.66,6.18Z"></path><path d="M478.33,165.36h-8.5a1.59,1.59,0,0,0-1.48,1l-18.61,54.93-18.62-54.93a1.5,1.5,0,0,0-1.46-1H421a1.54,1.54,0,0,0-1.46,2L440.53,230a9.83,9.83,0,0,0,7.64,6.69,9.57,9.57,0,0,0,10.67-6.44l21-62.82A1.53,1.53,0,0,0,478.33,165.36Z"></path><path d="M561.77,165.35h-8.09a1.72,1.72,0,0,0-1.7,1.73v68a1.72,1.72,0,0,0,1.7,1.73h8.09a1.72,1.72,0,0,0,1.73-1.73v-68A1.72,1.72,0,0,0,561.77,165.35Z"></path><path d="M700.57,209.07l0,0h-7.72a1.3,1.3,0,0,0-1.26.89l-.06.24a24.74,24.74,0,0,1-8.19,11.16,21.48,21.48,0,0,1-13.43,4.66,21.15,21.15,0,0,1-11.52-3.34,24.7,24.7,0,0,1-8.45-9.11,26.54,26.54,0,0,1,0-25.12,24.47,24.47,0,0,1,8.45-9.11A21.34,21.34,0,0,1,669.89,176a21.64,21.64,0,0,1,13.43,4.66,25.07,25.07,0,0,1,8.17,11.09l0,.12a1.52,1.52,0,0,0,1.44,1h7.28a1.54,1.54,0,0,0,1.48-2,35.32,35.32,0,0,0-18.13-22.22,32,32,0,0,0-31.13,1.5,35.22,35.22,0,0,0-12.3,13,37.32,37.32,0,0,0,0,35.79,35,35,0,0,0,12.3,13,31.79,31.79,0,0,0,17,4.83,31.41,31.41,0,0,0,14.17-3.33A34.4,34.4,0,0,0,695,224.3,35.52,35.52,0,0,0,701.73,211l.1-.37A1.31,1.31,0,0,0,700.57,209.07Z"></path><path d="M819.37,226H788.14a2.77,2.77,0,0,1-2.76-2.76V206.28h30.56a1.47,1.47,0,0,0,1.46-1.46v-7.4a1.47,1.47,0,0,0-1.46-1.46H785.38V179a2.84,2.84,0,0,1,.49-1.64,2.77,2.77,0,0,1,2.27-1.22l31.21.1a1.46,1.46,0,0,0,1.46-1.46v-8a1.47,1.47,0,0,0-1.46-1.46l0,0H790a16,16,0,0,0-16,16v39.48a16,16,0,0,0,16,16h29.42a1.47,1.47,0,0,0,1.46-1.46v-7.91A1.47,1.47,0,0,0,819.37,226Z"></path><path d="M218.93,165.37v0H189.71a16,16,0,0,0-16,16v39.48a16,16,0,0,0,16,16h29.22a1.63,1.63,0,0,0,1.64-1.64V227.6a1.63,1.63,0,0,0-1.64-1.62h-31a2.77,2.77,0,0,1-2.76-2.76V206.29h30.37a1.64,1.64,0,0,0,1.65-1.64v-7a1.64,1.64,0,0,0-1.65-1.64H185.15V179.06a2.87,2.87,0,0,1,.49-1.64,2.69,2.69,0,0,1,2.27-1.22l31,.08a1.65,1.65,0,0,0,1.66-1.64V167A1.63,1.63,0,0,0,218.93,165.37Z"></path></svg>