<svg xmlns="http://www.w3.org/2000/svg" viewBox="0 0 159.07 159.07"><defs><style>.cls-1{fill:#dedfe0;}.cls-2{fill:#555a5e;}.cls-3{fill:#f4f4f4;}.cls-4{fill:#6e7174;}.cls-5{fill:#d2d4da;}</style></defs><g id="Layer_2" data-name="Layer 2"><g id="OBJECTS"><path class="cls-1" d="M159.07,79.53A79.54,79.54,0,1,1,79.54,0,79.28,79.28,0,0,1,159.07,79.53Z"/><path class="cls-2" d="M92.52,30.68h-26a13.55,13.55,0,0,0-13.47,15L55.5,68.52h48.07L106,45.64A13.55,13.55,0,0,0,92.52,30.68Z"/><path class="cls-3" d="M136.79,134.74a79.52,79.52,0,0,1-114.5,0l1.37-5.4A22.54,22.54,0,0,1,40.27,113l13.61-3.25A16.56,16.56,0,0,0,66,97.78l1.06-4.12.28-1.11,0-.09,1.36-5.25.4-1.57H89.91l1.54,6,.14.54.08.3,0,.07L92,93.67,93,97.78a16.53,16.53,0,0,0,12.15,12L118.81,113a22.54,22.54,0,0,1,16.6,16.36Z"/><path class="cls-4" d="M136.78,134.75a79.27,79.27,0,0,1-54,24.25c-1.06.05-2.13.07-3.2.07s-2.14,0-3.2-.06c-2.37-.1-4.71-.29-7-.59a79.3,79.3,0,0,1-47-23.68l1.37-5.39A22.55,22.55,0,0,1,40.26,113l13.62-3.25a16.06,16.06,0,0,0,3.5-1.27,30.29,30.29,0,0,0,18.95,9.42,30.2,30.2,0,0,0,6.4,0,30.29,30.29,0,0,0,19-9.42,16.59,16.59,0,0,0,3.5,1.27L118.8,113a22.55,22.55,0,0,1,16.61,16.37Z"/><path class="cls-5" d="M91.67,92.48c-1.76,7.73-6.52,13.28-12.13,13.28S69.16,100.2,67.4,92.46l1.35-5.25.41-1.57H89.91l1.54,6,.14.54Z"/><path class="cls-3" d="M56.33,63.06C46,51.47,52.89,79.81,58.61,76.5,68.65,70.68,56.33,63.06,56.33,63.06Z"/><path class="cls-3" d="M102.74,63.06c10.33-11.59,3.44,16.75-2.28,13.44C90.42,70.68,102.74,63.06,102.74,63.06Z"/><path class="cls-3" d="M103.57,54.71a24.87,24.87,0,0,1-.14,2.6c-.1,1.08-.74,7-1.9,13.53-1.29,7.2-3.24,15.07-5.88,17.71-1.38,1.38-2.63,2.7-3.85,3.89a28.27,28.27,0,0,1-3.34,2.88,14.22,14.22,0,0,1-5.63,2.51,16.72,16.72,0,0,1-3.29.31h0A14.48,14.48,0,0,1,70.12,95a34.33,34.33,0,0,1-2.85-2.52c-1.21-1.19-2.46-2.51-3.84-3.89-2-2-3.54-6.77-4.75-12.06-.43-1.85-.81-3.76-1.14-5.63l-.18-1c-1.16-6.78-1.74-12.71-1.74-12.71-.07-.79-.12-1.6-.12-2.42,0-.21,0-.42,0-.63a24.24,24.24,0,0,1,.78-5.49l.06-.24A24.06,24.06,0,0,1,78.16,30.72c.45,0,.91,0,1.37,0h0a24,24,0,0,1,24,24Z"/><path class="cls-5" d="M68.09,74.7a8.7,8.7,0,1,1,8.7-8.7A8.71,8.71,0,0,1,68.09,74.7Zm0-16.49A7.79,7.79,0,1,0,75.88,66,7.8,7.8,0,0,0,68.09,58.21Z"/><path class="cls-5" d="M91,74.7a8.7,8.7,0,1,1,8.7-8.7A8.71,8.71,0,0,1,91,74.7Zm0-16.49A7.79,7.79,0,1,0,98.76,66,7.81,7.81,0,0,0,91,58.21Z"/><path class="cls-5" d="M83.19,66h-.91a2.75,2.75,0,0,0-5.49,0h-.91a3.66,3.66,0,1,1,7.31,0Z"/><polygon class="cls-2" points="79.55 46.22 79.66 46.19 79.64 46.25 79.55 46.22"/><path class="cls-2" d="M103.57,54.71c0,.82,0,1.63-.12,2.42,0,0-.58,5.93-1.74,12.71,0,0,1.17-27.94-10-27.17l-2.08.59a36.47,36.47,0,0,1-20.32,0l-1.87-.54c-11.21-.77-10,27.17-10,27.17-1.16-6.78-1.74-12.71-1.74-12.71-.07-.79-.12-1.6-.12-2.42,0-.21,0-.42,0-.63a24.24,24.24,0,0,1,.78-5.49l.06-.24A24.08,24.08,0,0,1,74.19,31.28l1.08-.22c.4-.07.8-.13,1.21-.18a3.78,3.78,0,0,1,.47-.06c.4,0,.8-.08,1.21-.1s.91,0,1.37,0h0c.46,0,.92,0,1.37,0s.81.06,1.21.1a3.78,3.78,0,0,1,.47.06c.41.05.81.11,1.21.18l1.08.22a24.08,24.08,0,0,1,17.84,17.07l.06.24a24.24,24.24,0,0,1,.78,5.49C103.56,54.29,103.57,54.5,103.57,54.71Z"/><path class="cls-2" d="M100.39,76.49c-1.21,5.29-2.79,10.1-4.75,12.06-1.38,1.38-2.63,2.7-3.84,3.89A34.33,34.33,0,0,1,89,95a14.5,14.5,0,0,1-6.12,2.87l-.1,0-.67.11c-.52.08-1.07.13-1.64.16l-.88,0h0l-.88,0c-.57,0-1.12-.08-1.64-.16l-.67-.11-.1,0A14.5,14.5,0,0,1,70.12,95a34.33,34.33,0,0,1-2.85-2.52c-1.21-1.19-2.46-2.51-3.84-3.89-2-2-3.54-6.77-4.75-12.06.52,0,3.55.15,8.72,9.62,3.49,6.41,11,7.84,12.12,8h0c1.08-.18,8.63-1.61,12.12-8C96.84,76.64,99.87,76.44,100.39,76.49Z"/><path class="cls-2" d="M84.43,81.33H74.88A4.67,4.67,0,0,0,70.21,86H89.1A4.67,4.67,0,0,0,84.43,81.33Z"/><path class="cls-1" d="M83.41,78.32c0,1.66-1.69,3-3.78,3s-3.77-1.35-3.77-3a1.89,1.89,0,0,1,.08-.58,4,4,0,0,0,7.39,0A1.89,1.89,0,0,1,83.41,78.32Z"/><path class="cls-2" d="M69.31,158.42a79.3,79.3,0,0,1-47-23.68l1.37-5.39A22.55,22.55,0,0,1,40.26,113l13.62-3.25a16.06,16.06,0,0,0,3.5-1.27Z"/><path class="cls-2" d="M89.75,158.42a79.3,79.3,0,0,0,47-23.68l-1.37-5.39A22.55,22.55,0,0,0,118.8,113l-13.62-3.25a16.06,16.06,0,0,1-3.5-1.27Z"/><path class="cls-2" d="M82.73,117.88V159c-1.06.05-2.13.07-3.2.07s-2.14,0-3.2-.06V117.88a30.2,30.2,0,0,0,6.4,0Z"/></g></g></svg>