<svg xmlns="http://www.w3.org/2000/svg" viewBox="0 0 159.07 159.07"><defs><style>.cls-1{fill:#dedfe0;}.cls-2{fill:#555a5e;}.cls-3{fill:#6e7174;}.cls-4{fill:#f4f4f4;}.cls-5{fill:#fff;}</style></defs><g id="Layer_2" data-name="Layer 2"><g id="OBJECTS"><path class="cls-1" d="M159.07,79.53A79.54,79.54,0,1,1,79.54,0,79.28,79.28,0,0,1,159.07,79.53Z"/><path class="cls-2" d="M136.79,134.74a79.67,79.67,0,0,1-16.9,13.33l-.53.31a79.64,79.64,0,0,1-63.86,7,75.29,75.29,0,0,1-8.23-3.11c-2.22-1-4.38-2.07-6.48-3.24l-1.57-.9a79.91,79.91,0,0,1-16.93-13.37l1.37-5.39A22.54,22.54,0,0,1,40.26,113l2.51-.6,1.69-.4,2.81-.67L52.53,110l1.1-.26.25-.06a15.07,15.07,0,0,0,1.62-.48A16.53,16.53,0,0,0,66,97.78l1.06-4.13.29-1.11,0-.08,1.35-5.25.41-1.57H89.91l1.54,6,.14.53.08.31,0,.07L92,93.67l1,4.11a16.53,16.53,0,0,0,12.16,11.94l1.34.32.07,0,9.18,2.19.58.14,2.45.58a22.54,22.54,0,0,1,16.6,16.37Z"/><path class="cls-2" d="M91.67,92.48c-1.76,7.73-6.52,13.28-12.13,13.28S69.16,100.2,67.4,92.46l1.35-5.25.41-1.57H89.91l1.54,6,.14.54Z"/><path class="cls-3" d="M111.81,55.3c0,20.32-14.45,36.79-32.27,36.79-15,0-27.57-11.64-31.2-27.41a41.17,41.17,0,0,1-1.06-9.38c0-20.3,14.44-36.77,32.26-36.77S111.81,35,111.81,55.3Z"/><path class="cls-3" d="M116.25,130.22H91.67V75.47h0a24.58,24.58,0,0,1,24.58,24.58Z"/><rect class="cls-3" x="91.67" y="117.82" width="4.83" height="22.81"/><rect class="cls-3" x="101.55" y="117.82" width="4.83" height="22.81"/><rect class="cls-3" x="111.42" y="117.82" width="4.83" height="22.81"/><path class="cls-4" d="M103.57,54.71a24.87,24.87,0,0,1-.14,2.6c-.23,2.28-2.76,26.21-7.78,31.24-2.64,2.64-4.77,5-7.19,6.77a14.37,14.37,0,0,1-8.92,2.82h0c-7.59,0-10.82-4.31-16.1-9.59-2.64-2.64-4.59-10.49-5.89-17.69-.06-.34-.12-.68-.17-1-1.17-6.78-1.74-12.71-1.74-12.71a24.06,24.06,0,0,1-.12-2.42v-.63a24.24,24.24,0,0,1,.78-5.49,2.17,2.17,0,0,1,.07-.24,24,24,0,0,1,21.8-17.63c.45,0,.91,0,1.37,0h0A24,24,0,0,1,103.57,54.71Z"/><rect class="cls-5" x="59.22" y="36.03" width="40.84" height="19.28"/><path class="cls-1" d="M83.41,78.32c0,1.66-1.69,3-3.78,3s-3.77-1.35-3.77-3a1.89,1.89,0,0,1,.08-.58,4,4,0,0,0,7.39,0A1.89,1.89,0,0,1,83.41,78.32Z"/><path class="cls-3" d="M103.36,66.19h0S95.6,41.68,79.64,39.07c-16,2.6-23.73,27.12-23.73,27.12h0A30.85,30.85,0,0,1,57,35.55l4.6-7.4,10.86-2.61,7.16-1.72,7.16,1.72,10.86,2.61,4.6,7.4A30.85,30.85,0,0,1,103.36,66.19Z"/></g></g></svg>